<mxfile host="app.diagrams.net" agent="Mozilla/5.0 (X11; Linux x86_64) AppleWebKit/537.36 (KHTML, like Gecko) Chrome/135.0.0.0 Safari/537.36" version="26.2.9">
  <diagram name="Page-1" id="cE2dqVIoDz5upWtL1v_I">
    <mxGraphModel dx="713" dy="417" grid="1" gridSize="10" guides="1" tooltips="1" connect="1" arrows="1" fold="1" page="1" pageScale="1" pageWidth="827" pageHeight="1169" math="0" shadow="0">
      <root>
        <mxCell id="0" />
        <mxCell id="1" parent="0" />
        <mxCell id="A5u78jb7f9OE5Yjk7lkH-3" value="" style="edgeStyle=orthogonalEdgeStyle;rounded=0;orthogonalLoop=1;jettySize=auto;html=1;" edge="1" parent="1" source="A5u78jb7f9OE5Yjk7lkH-1" target="A5u78jb7f9OE5Yjk7lkH-2">
          <mxGeometry relative="1" as="geometry" />
        </mxCell>
        <mxCell id="A5u78jb7f9OE5Yjk7lkH-1" value="Inicio" style="ellipse;whiteSpace=wrap;html=1;aspect=fixed;" vertex="1" parent="1">
          <mxGeometry x="30" y="30" width="80" height="80" as="geometry" />
        </mxCell>
        <mxCell id="A5u78jb7f9OE5Yjk7lkH-5" value="" style="edgeStyle=orthogonalEdgeStyle;rounded=0;orthogonalLoop=1;jettySize=auto;html=1;" edge="1" parent="1" source="A5u78jb7f9OE5Yjk7lkH-2" target="A5u78jb7f9OE5Yjk7lkH-4">
          <mxGeometry relative="1" as="geometry" />
        </mxCell>
        <mxCell id="A5u78jb7f9OE5Yjk7lkH-2" value="Ingrese un numero" style="whiteSpace=wrap;html=1;" vertex="1" parent="1">
          <mxGeometry x="170" y="40" width="120" height="60" as="geometry" />
        </mxCell>
        <mxCell id="A5u78jb7f9OE5Yjk7lkH-7" value="" style="edgeStyle=orthogonalEdgeStyle;rounded=0;orthogonalLoop=1;jettySize=auto;html=1;" edge="1" parent="1" source="A5u78jb7f9OE5Yjk7lkH-4" target="A5u78jb7f9OE5Yjk7lkH-6">
          <mxGeometry relative="1" as="geometry">
            <Array as="points">
              <mxPoint x="510" y="70" />
              <mxPoint x="510" y="70" />
            </Array>
          </mxGeometry>
        </mxCell>
        <mxCell id="A5u78jb7f9OE5Yjk7lkH-10" value="Si" style="edgeLabel;html=1;align=center;verticalAlign=middle;resizable=0;points=[];" vertex="1" connectable="0" parent="A5u78jb7f9OE5Yjk7lkH-7">
          <mxGeometry x="-0.0917" relative="1" as="geometry">
            <mxPoint as="offset" />
          </mxGeometry>
        </mxCell>
        <mxCell id="A5u78jb7f9OE5Yjk7lkH-9" value="No" style="edgeStyle=orthogonalEdgeStyle;rounded=0;orthogonalLoop=1;jettySize=auto;html=1;" edge="1" parent="1" source="A5u78jb7f9OE5Yjk7lkH-4" target="A5u78jb7f9OE5Yjk7lkH-8">
          <mxGeometry relative="1" as="geometry" />
        </mxCell>
        <mxCell id="A5u78jb7f9OE5Yjk7lkH-4" value="Numero%2=0" style="rhombus;whiteSpace=wrap;html=1;" vertex="1" parent="1">
          <mxGeometry x="390" y="30" width="80" height="80" as="geometry" />
        </mxCell>
        <mxCell id="A5u78jb7f9OE5Yjk7lkH-13" style="edgeStyle=orthogonalEdgeStyle;rounded=0;orthogonalLoop=1;jettySize=auto;html=1;" edge="1" parent="1" source="A5u78jb7f9OE5Yjk7lkH-6" target="A5u78jb7f9OE5Yjk7lkH-11">
          <mxGeometry relative="1" as="geometry" />
        </mxCell>
        <mxCell id="A5u78jb7f9OE5Yjk7lkH-6" value="El numero es Par" style="whiteSpace=wrap;html=1;" vertex="1" parent="1">
          <mxGeometry x="530" y="40" width="120" height="60" as="geometry" />
        </mxCell>
        <mxCell id="A5u78jb7f9OE5Yjk7lkH-12" style="edgeStyle=orthogonalEdgeStyle;rounded=0;orthogonalLoop=1;jettySize=auto;html=1;" edge="1" parent="1" source="A5u78jb7f9OE5Yjk7lkH-8" target="A5u78jb7f9OE5Yjk7lkH-11">
          <mxGeometry relative="1" as="geometry" />
        </mxCell>
        <mxCell id="A5u78jb7f9OE5Yjk7lkH-8" value="El numero es impar" style="whiteSpace=wrap;html=1;" vertex="1" parent="1">
          <mxGeometry x="370" y="200" width="120" height="60" as="geometry" />
        </mxCell>
        <mxCell id="A5u78jb7f9OE5Yjk7lkH-11" value="Fin" style="ellipse;whiteSpace=wrap;html=1;aspect=fixed;" vertex="1" parent="1">
          <mxGeometry x="550" y="190" width="80" height="80" as="geometry" />
        </mxCell>
      </root>
    </mxGraphModel>
  </diagram>
</mxfile>
